<?xml version="1.0" standalone="no"?>
<!DOCTYPE svg PUBLIC "-//W3C//DTD SVG 20010904//EN"
 "http://www.w3.org/TR/2001/REC-SVG-20010904/DTD/svg10.dtd">
<svg version="1.0" xmlns="http://www.w3.org/2000/svg"
 width="400.000000pt" height="400.000000pt" viewBox="0 0 400.000000 400.000000"
 preserveAspectRatio="xMidYMid meet">
<metadata>
Created by potrace 1.11, written by Peter Selinger 2001-2013
</metadata>
<g transform="translate(0.000000,400.000000) scale(0.100000,-0.100000)"
fill="#000000" stroke="none" stroke-opacity="0.1" fill-opacity="0.1">
<path d="M145 3940 c9 -14 3131 -14 3140 0 4 7 -522 10 -1570 10 -1048 0
-1574 -3 -1570 -10z"/>
<path d="M3320 3939 c0 -6 16 -9 40 -8 21 2 42 1 44 -2 3 -3 -37 -40 -89 -83
-52 -42 -95 -81 -95 -86 0 -8 -49 -51 -160 -140 -208 -168 -509 -422 -514
-435 -3 -8 -12 -15 -21 -15 -8 0 -15 -6 -15 -13 0 -7 -8 -17 -17 -23 -10 -6
-143 -115 -297 -243 -153 -127 -283 -231 -288 -231 -5 0 -29 -16 -52 -35 -24
-19 -48 -35 -53 -35 -6 0 -34 -19 -62 -42 -42 -35 -51 -47 -46 -65 4 -16 1
-23 -10 -23 -17 0 -20 -40 -5 -70 5 -11 15 -29 21 -41 9 -17 7 -24 -10 -36
-12 -8 -21 -21 -21 -29 0 -8 -7 -14 -15 -14 -14 0 -88 -59 -419 -335 -73 -60
-152 -126 -177 -145 -24 -19 -66 -57 -94 -86 -27 -28 -79 -75 -115 -104 -36
-29 -68 -61 -72 -71 -4 -11 -11 -19 -16 -19 -5 0 -24 -19 -42 -41 -28 -35 -31
-45 -21 -60 6 -11 7 -19 2 -19 -5 0 -12 6 -15 13 -6 14 -56 -40 -56 -60 0 -7
-4 -13 -10 -13 -5 0 -10 -6 -10 -14 0 -8 -10 -22 -22 -30 -12 -9 -20 -18 -17
-20 6 -7 59 39 59 50 0 5 9 15 20 22 11 7 20 18 20 26 0 8 15 17 35 20 35 7
44 19 24 31 -14 10 31 57 48 51 21 -8 43 5 43 25 0 23 58 78 83 79 9 0 17 7
17 15 0 8 9 20 20 27 11 7 20 17 20 21 0 14 28 37 44 37 9 0 16 5 16 10 0 16
63 69 81 70 9 0 19 9 22 20 3 11 21 27 41 35 20 9 36 20 36 26 0 14 41 48 58
49 6 0 12 4 12 9 0 8 145 133 280 241 24 19 72 59 106 88 34 28 67 52 72 52 6
0 25 12 43 28 43 35 113 36 162 0 17 -13 44 -30 60 -37 15 -8 27 -19 27 -24 0
-5 10 -17 23 -28 12 -10 16 -18 9 -19 -7 0 -29 -17 -50 -38 -20 -20 -57 -53
-81 -72 -97 -76 -161 -132 -161 -141 0 -5 -5 -9 -11 -9 -6 0 -26 -12 -43 -27
-18 -16 -52 -44 -76 -63 -24 -19 -88 -72 -143 -117 -54 -46 -103 -83 -109 -83
-5 0 -36 -27 -69 -60 -32 -33 -65 -60 -73 -60 -8 0 -16 -7 -20 -15 -3 -8 -12
-15 -21 -15 -8 0 -15 -7 -15 -15 0 -8 -9 -15 -20 -15 -11 0 -20 -6 -20 -12 0
-7 -15 -20 -33 -29 -17 -8 -36 -25 -42 -37 -5 -12 -17 -22 -26 -22 -9 0 -23
-8 -30 -17 -13 -15 -11 -16 19 -10 27 6 31 4 20 -6 -7 -8 -26 -17 -42 -21 -17
-4 -41 -15 -55 -25 -14 -10 -36 -22 -48 -25 -13 -4 -23 -12 -23 -17 0 -5 -9
-9 -20 -9 -11 0 -20 -4 -20 -10 0 -5 -11 -12 -25 -16 -13 -3 -29 -12 -36 -20
-6 -8 -20 -14 -30 -14 -11 0 -19 -4 -19 -10 0 -27 98 9 134 49 11 12 27 21 37
21 10 0 21 5 24 10 3 6 15 10 27 10 11 0 34 6 51 14 18 7 48 21 69 30 20 9 45
16 56 16 12 0 24 5 27 10 3 6 14 10 23 10 9 0 39 11 65 24 29 15 76 28 118 32
38 4 69 11 69 15 0 5 13 9 29 9 17 0 33 5 36 10 4 6 28 11 53 11 93 0 178 10
212 26 46 21 80 52 80 75 0 12 7 18 21 18 36 0 79 38 79 70 0 27 3 29 28 24
33 -7 72 23 72 56 0 33 -47 71 -74 59 -29 -13 -49 -58 -35 -76 16 -19 -1 -16
-23 4 -17 15 -20 15 -46 -10 -16 -15 -35 -27 -44 -27 -9 0 -20 -5 -23 -10 -7
-11 -88 -50 -104 -50 -6 0 -26 -9 -46 -20 -20 -11 -44 -20 -53 -20 -10 0 -27
-7 -38 -15 -21 -16 -44 -19 -44 -6 0 5 17 16 38 25 20 9 45 21 54 26 10 6 23
10 29 10 11 0 107 42 139 61 8 4 29 16 47 25 18 9 37 22 44 30 6 8 17 14 24
14 6 0 23 9 36 21 13 12 33 27 43 35 11 7 16 17 12 21 -4 4 -10 3 -14 -3 -9
-14 -72 -47 -79 -41 -4 5 50 47 62 47 14 0 75 53 75 66 0 16 34 27 60 19 11
-3 20 -12 20 -20 0 -7 14 -25 30 -38 17 -14 30 -31 30 -37 0 -6 14 -2 31 10
20 15 29 29 27 44 -3 24 7 27 40 15 13 -5 29 -9 36 -9 6 0 17 -5 23 -11 6 -6
40 -11 76 -11 63 0 68 2 119 43 69 58 78 66 78 76 1 11 410 347 428 352 9 1
66 45 128 97 62 52 118 94 124 94 6 0 54 36 107 81 53 45 104 84 112 87 14 5
88 58 101 72 14 15 89 70 96 70 5 0 50 34 99 76 50 42 100 80 113 85 21 8 22
13 22 134 0 77 4 125 10 125 6 0 10 93 10 260 0 167 -4 260 -10 260 -5 0 -10
25 -10 55 0 30 -3 55 -7 55 -5 0 -108 -84 -231 -185 -122 -102 -227 -185 -232
-185 -6 0 -54 -36 -107 -80 -54 -44 -103 -80 -110 -80 -6 0 -21 -13 -33 -30
-12 -16 -28 -30 -35 -30 -8 0 -19 -9 -25 -20 -6 -11 -17 -20 -25 -20 -8 0 -15
-7 -15 -15 0 -8 -8 -15 -19 -15 -10 0 -41 -22 -68 -48 -28 -27 -57 -51 -64
-55 -11 -4 -398 -321 -544 -445 -11 -10 -37 -30 -57 -46 -21 -16 -38 -33 -38
-40 -1 -6 -21 -27 -45 -46 -25 -19 -45 -41 -45 -47 0 -7 -7 -13 -15 -13 -8 0
-19 -9 -25 -20 -8 -15 -21 -20 -55 -20 -25 0 -45 4 -45 9 0 5 -16 16 -36 26
-47 22 -84 55 -84 74 0 16 28 32 80 46 14 4 34 16 45 26 11 10 30 21 42 26 29
11 323 254 323 267 0 12 72 66 102 78 10 4 18 12 18 17 0 5 47 48 104 96 58
48 107 93 110 101 3 8 12 14 21 14 8 0 15 7 15 15 0 8 9 15 20 15 11 0 20 6
20 13 0 8 30 38 67 68 76 61 111 89 127 104 6 6 28 23 49 39 20 16 37 33 37
40 1 6 70 67 155 136 85 69 154 130 155 135 0 6 12 16 28 23 33 15 92 68 92
82 0 5 9 10 20 10 11 0 20 7 20 15 0 8 7 15 15 15 9 0 18 7 21 15 5 12 30 15
134 15 75 0 131 4 135 10 4 7 -97 10 -294 10 -208 0 -301 -3 -301 -11z"/>
<path d="M2665 1481 c-6 -5 -84 -13 -175 -17 -91 -3 -170 -10 -175 -14 -9 -8
-136 -18 -227 -19 -20 0 -39 -5 -43 -11 -3 -5 -24 -10 -45 -10 -21 0 -40 -5
-42 -11 -2 -6 -32 -13 -66 -16 -34 -3 -65 -10 -68 -14 -3 -5 -24 -9 -48 -9
-23 0 -46 -4 -51 -9 -6 -6 -68 -13 -138 -17 -70 -4 -130 -11 -133 -15 -3 -5
-22 -9 -42 -9 -20 0 -50 -7 -66 -15 -15 -8 -34 -15 -41 -15 -6 0 -33 -11 -59
-25 -26 -14 -56 -25 -66 -25 -10 0 -21 -4 -25 -9 -3 -5 -20 -13 -37 -17 -18
-3 -39 -10 -48 -15 -47 -25 -86 -39 -106 -39 -13 0 -26 -4 -29 -10 -3 -5 -15
-10 -27 -10 -11 0 -34 -6 -51 -14 -18 -8 -48 -17 -67 -20 -90 -15 -120 -26
-120 -42 0 -9 -11 -14 -30 -14 -16 0 -30 -4 -30 -10 0 -5 -14 -10 -31 -10 -17
0 -28 -4 -24 -10 8 -13 102 -13 110 0 3 6 30 10 60 10 30 0 56 4 59 9 3 4 60
12 126 16 66 4 122 11 126 16 3 5 36 9 74 9 38 0 72 5 75 11 4 6 21 9 39 8 32
-2 77 6 111 21 11 5 53 12 93 15 39 4 75 11 78 16 3 5 18 9 34 9 16 0 31 4 34
9 3 5 36 12 73 16 38 4 73 10 78 15 6 4 39 10 75 14 35 3 69 11 74 16 6 6 22
10 37 10 15 0 30 4 33 9 3 4 42 12 86 15 44 4 82 12 85 17 4 5 34 9 69 9 34 0
67 5 73 11 6 6 38 13 72 16 34 3 64 10 67 14 3 5 20 9 37 9 18 0 45 7 61 15
15 8 36 15 46 15 10 0 31 7 46 15 16 8 41 15 55 15 14 0 45 9 68 21 24 11 59
23 77 26 19 3 37 10 40 14 3 5 16 9 30 9 15 0 24 6 24 15 0 12 -18 15 -103 15
-57 0 -107 -4 -112 -9z"/>
</g>
</svg>
